<?xml version="1.0" encoding="utf-8"?>
<svg xmlns="http://www.w3.org/2000/svg" xmlns:xlink="http://www.w3.org/1999/xlink" style="margin: auto; background: rgba(0, 0, 0, 0) none repeat scroll 0% 0%; display: block; shape-rendering: auto;" width="214px" height="214px" viewBox="0 0 100 100" preserveAspectRatio="xMidYMid">
<g transform="rotate(0 50 50)">
  <rect x="48" y="8" rx="0" ry="0" width="4" height="6" fill="#182731">
    <animate attributeName="opacity" values="1;0" keyTimes="0;1" dur="1.1111111111111112s" begin="-1.0774410774410774s" repeatCount="indefinite"></animate>
  </rect>
</g><g transform="rotate(10.909090909090908 50 50)">
  <rect x="48" y="8" rx="0" ry="0" width="4" height="6" fill="#182731">
    <animate attributeName="opacity" values="1;0" keyTimes="0;1" dur="1.1111111111111112s" begin="-1.043771043771044s" repeatCount="indefinite"></animate>
  </rect>
</g><g transform="rotate(21.818181818181817 50 50)">
  <rect x="48" y="8" rx="0" ry="0" width="4" height="6" fill="#182731">
    <animate attributeName="opacity" values="1;0" keyTimes="0;1" dur="1.1111111111111112s" begin="-1.0101010101010102s" repeatCount="indefinite"></animate>
  </rect>
</g><g transform="rotate(32.72727272727273 50 50)">
  <rect x="48" y="8" rx="0" ry="0" width="4" height="6" fill="#182731">
    <animate attributeName="opacity" values="1;0" keyTimes="0;1" dur="1.1111111111111112s" begin="-0.9764309764309764s" repeatCount="indefinite"></animate>
  </rect>
</g><g transform="rotate(43.63636363636363 50 50)">
  <rect x="48" y="8" rx="0" ry="0" width="4" height="6" fill="#182731">
    <animate attributeName="opacity" values="1;0" keyTimes="0;1" dur="1.1111111111111112s" begin="-0.9427609427609428s" repeatCount="indefinite"></animate>
  </rect>
</g><g transform="rotate(54.54545454545455 50 50)">
  <rect x="48" y="8" rx="0" ry="0" width="4" height="6" fill="#182731">
    <animate attributeName="opacity" values="1;0" keyTimes="0;1" dur="1.1111111111111112s" begin="-0.9090909090909091s" repeatCount="indefinite"></animate>
  </rect>
</g><g transform="rotate(65.45454545454545 50 50)">
  <rect x="48" y="8" rx="0" ry="0" width="4" height="6" fill="#182731">
    <animate attributeName="opacity" values="1;0" keyTimes="0;1" dur="1.1111111111111112s" begin="-0.8754208754208754s" repeatCount="indefinite"></animate>
  </rect>
</g><g transform="rotate(76.36363636363636 50 50)">
  <rect x="48" y="8" rx="0" ry="0" width="4" height="6" fill="#182731">
    <animate attributeName="opacity" values="1;0" keyTimes="0;1" dur="1.1111111111111112s" begin="-0.8417508417508418s" repeatCount="indefinite"></animate>
  </rect>
</g><g transform="rotate(87.27272727272727 50 50)">
  <rect x="48" y="8" rx="0" ry="0" width="4" height="6" fill="#182731">
    <animate attributeName="opacity" values="1;0" keyTimes="0;1" dur="1.1111111111111112s" begin="-0.8080808080808081s" repeatCount="indefinite"></animate>
  </rect>
</g><g transform="rotate(98.18181818181819 50 50)">
  <rect x="48" y="8" rx="0" ry="0" width="4" height="6" fill="#182731">
    <animate attributeName="opacity" values="1;0" keyTimes="0;1" dur="1.1111111111111112s" begin="-0.7744107744107744s" repeatCount="indefinite"></animate>
  </rect>
</g><g transform="rotate(109.0909090909091 50 50)">
  <rect x="48" y="8" rx="0" ry="0" width="4" height="6" fill="#182731">
    <animate attributeName="opacity" values="1;0" keyTimes="0;1" dur="1.1111111111111112s" begin="-0.7407407407407408s" repeatCount="indefinite"></animate>
  </rect>
</g><g transform="rotate(120 50 50)">
  <rect x="48" y="8" rx="0" ry="0" width="4" height="6" fill="#182731">
    <animate attributeName="opacity" values="1;0" keyTimes="0;1" dur="1.1111111111111112s" begin="-0.7070707070707071s" repeatCount="indefinite"></animate>
  </rect>
</g><g transform="rotate(130.9090909090909 50 50)">
  <rect x="48" y="8" rx="0" ry="0" width="4" height="6" fill="#182731">
    <animate attributeName="opacity" values="1;0" keyTimes="0;1" dur="1.1111111111111112s" begin="-0.6734006734006734s" repeatCount="indefinite"></animate>
  </rect>
</g><g transform="rotate(141.8181818181818 50 50)">
  <rect x="48" y="8" rx="0" ry="0" width="4" height="6" fill="#182731">
    <animate attributeName="opacity" values="1;0" keyTimes="0;1" dur="1.1111111111111112s" begin="-0.6397306397306397s" repeatCount="indefinite"></animate>
  </rect>
</g><g transform="rotate(152.72727272727272 50 50)">
  <rect x="48" y="8" rx="0" ry="0" width="4" height="6" fill="#182731">
    <animate attributeName="opacity" values="1;0" keyTimes="0;1" dur="1.1111111111111112s" begin="-0.6060606060606061s" repeatCount="indefinite"></animate>
  </rect>
</g><g transform="rotate(163.63636363636363 50 50)">
  <rect x="48" y="8" rx="0" ry="0" width="4" height="6" fill="#182731">
    <animate attributeName="opacity" values="1;0" keyTimes="0;1" dur="1.1111111111111112s" begin="-0.5723905723905724s" repeatCount="indefinite"></animate>
  </rect>
</g><g transform="rotate(174.54545454545453 50 50)">
  <rect x="48" y="8" rx="0" ry="0" width="4" height="6" fill="#182731">
    <animate attributeName="opacity" values="1;0" keyTimes="0;1" dur="1.1111111111111112s" begin="-0.5387205387205387s" repeatCount="indefinite"></animate>
  </rect>
</g><g transform="rotate(185.45454545454547 50 50)">
  <rect x="48" y="8" rx="0" ry="0" width="4" height="6" fill="#182731">
    <animate attributeName="opacity" values="1;0" keyTimes="0;1" dur="1.1111111111111112s" begin="-0.5050505050505051s" repeatCount="indefinite"></animate>
  </rect>
</g><g transform="rotate(196.36363636363637 50 50)">
  <rect x="48" y="8" rx="0" ry="0" width="4" height="6" fill="#182731">
    <animate attributeName="opacity" values="1;0" keyTimes="0;1" dur="1.1111111111111112s" begin="-0.4713804713804714s" repeatCount="indefinite"></animate>
  </rect>
</g><g transform="rotate(207.27272727272728 50 50)">
  <rect x="48" y="8" rx="0" ry="0" width="4" height="6" fill="#182731">
    <animate attributeName="opacity" values="1;0" keyTimes="0;1" dur="1.1111111111111112s" begin="-0.4377104377104377s" repeatCount="indefinite"></animate>
  </rect>
</g><g transform="rotate(218.1818181818182 50 50)">
  <rect x="48" y="8" rx="0" ry="0" width="4" height="6" fill="#182731">
    <animate attributeName="opacity" values="1;0" keyTimes="0;1" dur="1.1111111111111112s" begin="-0.40404040404040403s" repeatCount="indefinite"></animate>
  </rect>
</g><g transform="rotate(229.0909090909091 50 50)">
  <rect x="48" y="8" rx="0" ry="0" width="4" height="6" fill="#182731">
    <animate attributeName="opacity" values="1;0" keyTimes="0;1" dur="1.1111111111111112s" begin="-0.3703703703703704s" repeatCount="indefinite"></animate>
  </rect>
</g><g transform="rotate(240 50 50)">
  <rect x="48" y="8" rx="0" ry="0" width="4" height="6" fill="#182731">
    <animate attributeName="opacity" values="1;0" keyTimes="0;1" dur="1.1111111111111112s" begin="-0.3367003367003367s" repeatCount="indefinite"></animate>
  </rect>
</g><g transform="rotate(250.9090909090909 50 50)">
  <rect x="48" y="8" rx="0" ry="0" width="4" height="6" fill="#182731">
    <animate attributeName="opacity" values="1;0" keyTimes="0;1" dur="1.1111111111111112s" begin="-0.30303030303030304s" repeatCount="indefinite"></animate>
  </rect>
</g><g transform="rotate(261.8181818181818 50 50)">
  <rect x="48" y="8" rx="0" ry="0" width="4" height="6" fill="#182731">
    <animate attributeName="opacity" values="1;0" keyTimes="0;1" dur="1.1111111111111112s" begin="-0.26936026936026936s" repeatCount="indefinite"></animate>
  </rect>
</g><g transform="rotate(272.72727272727275 50 50)">
  <rect x="48" y="8" rx="0" ry="0" width="4" height="6" fill="#182731">
    <animate attributeName="opacity" values="1;0" keyTimes="0;1" dur="1.1111111111111112s" begin="-0.2356902356902357s" repeatCount="indefinite"></animate>
  </rect>
</g><g transform="rotate(283.6363636363636 50 50)">
  <rect x="48" y="8" rx="0" ry="0" width="4" height="6" fill="#182731">
    <animate attributeName="opacity" values="1;0" keyTimes="0;1" dur="1.1111111111111112s" begin="-0.20202020202020202s" repeatCount="indefinite"></animate>
  </rect>
</g><g transform="rotate(294.54545454545456 50 50)">
  <rect x="48" y="8" rx="0" ry="0" width="4" height="6" fill="#182731">
    <animate attributeName="opacity" values="1;0" keyTimes="0;1" dur="1.1111111111111112s" begin="-0.16835016835016836s" repeatCount="indefinite"></animate>
  </rect>
</g><g transform="rotate(305.45454545454544 50 50)">
  <rect x="48" y="8" rx="0" ry="0" width="4" height="6" fill="#182731">
    <animate attributeName="opacity" values="1;0" keyTimes="0;1" dur="1.1111111111111112s" begin="-0.13468013468013468s" repeatCount="indefinite"></animate>
  </rect>
</g><g transform="rotate(316.3636363636364 50 50)">
  <rect x="48" y="8" rx="0" ry="0" width="4" height="6" fill="#182731">
    <animate attributeName="opacity" values="1;0" keyTimes="0;1" dur="1.1111111111111112s" begin="-0.10101010101010101s" repeatCount="indefinite"></animate>
  </rect>
</g><g transform="rotate(327.27272727272725 50 50)">
  <rect x="48" y="8" rx="0" ry="0" width="4" height="6" fill="#182731">
    <animate attributeName="opacity" values="1;0" keyTimes="0;1" dur="1.1111111111111112s" begin="-0.06734006734006734s" repeatCount="indefinite"></animate>
  </rect>
</g><g transform="rotate(338.1818181818182 50 50)">
  <rect x="48" y="8" rx="0" ry="0" width="4" height="6" fill="#182731">
    <animate attributeName="opacity" values="1;0" keyTimes="0;1" dur="1.1111111111111112s" begin="-0.03367003367003367s" repeatCount="indefinite"></animate>
  </rect>
</g><g transform="rotate(349.09090909090907 50 50)">
  <rect x="48" y="8" rx="0" ry="0" width="4" height="6" fill="#182731">
    <animate attributeName="opacity" values="1;0" keyTimes="0;1" dur="1.1111111111111112s" begin="0s" repeatCount="indefinite"></animate>
  </rect>
</g>
<!-- [ldio] generated by https://loading.io/ --></svg>